<?xml version="1.0" encoding="utf-8"?>
<!-- Generator: Adobe Illustrator 13.0.0, SVG Export Plug-In . SVG Version: 6.00 Build 14948)  -->
<!DOCTYPE svg PUBLIC "-//W3C//DTD SVG 1.1//EN" "http://www.w3.org/Graphics/SVG/1.1/DTD/svg11.dtd">
<svg version="1.1" id="Layer_1" xmlns="http://www.w3.org/2000/svg" xmlns:xlink="http://www.w3.org/1999/xlink" x="0px" y="0px"
	 width="1914px" height="1075px" viewBox="0 0 1914 1075" enable-background="new 0 0 1914 1075" xml:space="preserve">
<line fill="none" stroke="#000000" x1="840.596" y1="300.875" x2="1051" y2="300.875"/>
<line fill="#141616" stroke="#000000" x1="764.066" y1="392.398" x2="764.066" y2="465.628"/>
<line fill="#141616" stroke="#000000" x1="361.441" y1="758.476" x2="361.441" y2="809.183"/>
<line fill="#141616" stroke="#000000" x1="515.566" y1="392.398" x2="515.566" y2="465.63"/>
<g>
	<path fill="#A4A4CB" stroke="#000000" d="M636.804,751.305c0,13.797-6.11,24.987-13.646,24.987H426.588
		c-7.536,0-13.644-11.19-13.644-24.987v-72.028c0-13.795,6.108-24.984,13.644-24.984h196.569c7.536,0,13.646,11.189,13.646,24.984
		V751.305z"/>
	<rect x="415.559" y="709.065" fill="none" width="220.434" height="45.051"/>
	<text transform="matrix(1 0 0 1 445.4824 730.3652)" fill="#FFFFFF" font-family="'MyriadPro-Regular'" font-size="30">Data Science</text>
</g>
<rect x="454.967" y="184.118" opacity="0.5" fill="#7488F7" fill-opacity="0.4" width="376.349" height="207.878"/>
<g>
	<path fill="#687D9B" stroke="#000000" d="M313.416,752.588c0,13.804-6.108,24.989-13.642,24.989H103.2
		c-7.532,0-13.642-11.186-13.642-24.989v-72.023c0-13.796,6.11-24.98,13.642-24.98h196.574c7.534,0,13.642,11.185,13.642,24.98
		V752.588z"/>
	<rect x="94.748" y="710.351" fill="none" width="220.437" height="45.056"/>
	<text transform="matrix(1 0 0 1 149.8271 731.6504)" fill="#FFFFFF" font-family="'MyriadPro-Regular'" font-size="30">Statistics</text>
</g>
<rect x="292.88" y="694.917" fill="none" width="139.146" height="39.94"/>
<text transform="matrix(1 0 0 1 348.6309 727.8477)" font-family="'MyriadPro-Regular'" font-size="46.382">≤</text>
<rect x="208.05" y="986.367" fill="none" width="359.458" height="51.537"/>
<text transform="matrix(1 0 0 1 223.8828 1008.3213)" fill="#BF0D00" font-family="'MyriadPro-Regular'" font-size="30.9214">Somewhat opinnionated!</text>
<g>
	<path fill="#996898" stroke="#000000" d="M563.945,534.987c0,13.795-6.11,24.987-13.643,24.987H353.729
		c-7.535,0-13.643-11.192-13.643-24.987v-72.028c0-13.791,6.108-24.984,13.643-24.984h196.572c7.533,0,13.643,11.193,13.643,24.984
		V534.987z"/>
	<rect x="345.277" y="492.748" fill="none" width="220.436" height="45.052"/>
	<text transform="matrix(1 0 0 1 366.4263 514.0488)" fill="#FFFFFF" font-family="'MyriadPro-Regular'" font-size="30">Data Analytics</text>
</g>
<g>
	<path fill="#770777" stroke="#000000" d="M857.946,533.697c0,13.801-6.11,24.989-13.642,24.989H647.733
		c-7.536,0-13.647-11.188-13.647-24.989v-72.021c0-13.802,6.112-24.985,13.647-24.985h196.571c7.532,0,13.642,11.183,13.642,24.985
		V533.697z"/>
	<rect x="639.279" y="491.454" fill="none" width="220.436" height="45.057"/>
	<text transform="matrix(1 0 0 1 666.1733 512.7539)" fill="#FFFFFF" font-family="'MyriadPro-Regular'" font-size="30">Data Analysis</text>
</g>
<rect x="432.517" y="545.029" fill="none" width="39.941" height="139.148"/>
<text transform="matrix(0 1 -1 0 439.5278 600.7822)" font-family="'MyriadPro-Regular'" font-size="46.382">≤</text>
<rect x="496.355" y="309.564" fill="none" width="257.503" height="48.619"/>
<rect x="536.15" y="485.626" fill="none" width="139.147" height="39.94"/>
<text transform="matrix(-1 0 0 1 619.5459 518.5576)" font-family="'MyriadPro-Regular'" font-size="46.382">≤</text>
<rect x="456.167" y="202.729" fill="none" width="367.348" height="174.471"/>
<text transform="matrix(1 0 0 1 485.3281 224.0288)"><tspan x="0" y="0" font-family="'MyriadPro-Regular'" font-size="30">One way to differentiate: </tspan><tspan x="9.555" y="72" font-family="'MyriadPro-Regular'" font-size="30">Analysis looks into past</tspan><tspan x="141.358" y="108" font-family="'MyriadPro-Regular'" font-size="30">vs</tspan><tspan x="-7.815" y="144" font-family="'MyriadPro-Regular'" font-size="30">Analytics looks into future</tspan></text>
<g>
	<path fill="#74AF8F" stroke="#000000" d="M1282.464,324.794c0,13.795-6.106,24.983-13.638,24.983h-196.577
		c-7.532,0-13.642-11.188-13.642-24.983v-72.027c0-13.797,6.109-24.985,13.642-24.985h196.577c7.531,0,13.638,11.188,13.638,24.985
		V324.794z"/>
	<rect x="1061.131" y="281.886" fill="none" width="217.772" height="45.051"/>
	<text transform="matrix(1 0 0 1 1063.6895 301.7661)" fill="#FFFFFF" font-family="'MyriadPro-Regular'" font-size="28">My favorite toolkit</text>
</g>
<line fill="none" stroke="#000000" x1="1292.017" y1="234.904" x2="1373.453" y2="183.941"/>
<rect x="918.676" y="675.819" opacity="0.5" fill="#7488F7" fill-opacity="0.4" width="482.845" height="145.519"/>
<rect x="919.275" y="698.468" fill="none" width="470.844" height="107.98"/>
<text transform="matrix(1 0 0 1 930.481 719.7676)"><tspan x="0" y="0" font-family="'MyriadPro-Regular'" font-size="30">Means for effective decision making</tspan><tspan x="211.062" y="36" font-family="'MyriadPro-Regular'" font-size="30">vs</tspan><tspan x="104.818" y="72" font-family="'MyriadPro-Regular'" font-size="30">Scientific approach</tspan></text>
<line fill="none" stroke="#000000" x1="511.188" y1="616.287" x2="1152" y2="616.287"/>
<g>
	<path fill="#D83A6F" stroke="#000000" d="M1636.005,167.801c0,13.797-6.106,24.984-13.642,24.984h-196.569
		c-7.536,0-13.646-11.187-13.646-24.984V95.775c0-13.797,6.11-24.984,13.646-24.984h196.569c7.535,0,13.642,11.188,13.642,24.984
		V167.801z"/>
	<rect x="1411.843" y="125.56" fill="none" width="225.937" height="45.053"/>
	<text transform="matrix(1 0 0 1 1416.8896 146.1499)" fill="#FFFFFF" font-family="'MyriadPro-Regular'" font-size="29">Data Visualization</text>
</g>
<g>
	<path fill="#0D0DCC" stroke="#000000" d="M1636.008,333.013c0,13.798-6.108,24.982-13.645,24.982h-196.566
		c-7.538,0-13.649-11.185-13.649-24.982v-72.026c0-13.798,6.111-24.986,13.649-24.986h196.566c7.536,0,13.645,11.188,13.645,24.986
		V333.013z"/>
	<rect x="1411.339" y="271.864" fill="none" width="224.44" height="63.958"/>
	<text transform="matrix(1 0 0 1 1461.2646 293.1636)"><tspan x="0" y="0" fill="#FFFFFF" font-family="'MyriadPro-Regular'" font-size="30">Predictive </tspan><tspan x="-1.274" y="36" fill="#FFFFFF" font-family="'MyriadPro-Regular'" font-size="30">Modelling</tspan></text>
</g>
<g>
	<rect x="128.167" y="820.272" opacity="0.5" fill="#7488F7" fill-opacity="0.4" width="554.397" height="148.574"/>
	<rect x="138.872" y="847.231" fill="none" width="518.843" height="109.85"/>
	<text transform="matrix(1 0 0 1 218.1611 868.5313)"><tspan x="0" y="0" font-family="'MyriadPro-Regular'" font-size="30">Statistics ≈ Scientific method</tspan><tspan x="166.978" y="40" font-family="'MyriadPro-Regular'" font-size="30">vs</tspan><tspan x="-29.669" y="80" font-family="'MyriadPro-Regular'" font-size="30">Data Science ≈ “Greater statistics”</tspan></text>
</g>
<line fill="none" stroke="#000000" x1="1289.799" y1="297.571" x2="1385.064" y2="297.571"/>
<g>
	<path opacity="0.4" fill="#EFAB22" stroke="#000000" stroke-dasharray="12" d="M1636.004,501.197
		c0,13.796-6.104,24.983-13.638,24.983h-196.567c-7.54,0-13.651-11.188-13.651-24.983v-72.028c0-13.795,6.111-24.982,13.651-24.982
		h196.567c7.533,0,13.638,11.188,13.638,24.982V501.197z"/>
	<rect x="1412.584" y="422.62" fill="none" width="225.194" height="94.059"/>
	<text transform="matrix(1 0 0 1 1468.5723 443.9189)"><tspan x="0" y="0" fill="#FFFFFF" font-family="'MyriadPro-Regular'" font-size="30">Data and </tspan><tspan x="-37.56" y="36" fill="#FFFFFF" font-family="'MyriadPro-Regular'" font-size="30">Dimensionality</tspan><tspan x="-7.455" y="72" fill="#FFFFFF" font-family="'MyriadPro-Regular'" font-size="30">Reduction</tspan></text>
</g>
<line fill="none" stroke="#000000" x1="1284.876" y1="357.897" x2="1374.306" y2="405.638"/>
<line fill="#141616" stroke="#000000" x1="1152.066" y1="616.398" x2="1152.066" y2="674"/>
</svg>
